<svg width="1587" height="882" viewBox="0 0 1587 882" fill="none" xmlns="http://www.w3.org/2000/svg">
<rect x="549" y="167" width="301" height="91" fill="#DA0037"/>
<rect x="549" y="167" width="301" height="91" fill="#DA0037"/>
<rect x="549" y="167" width="301" height="91" fill="#DA0037"/>
<path d="M644.867 213.566L654.037 217.272V220.144L642.055 214.592V212.453L654.037 206.916V209.787L644.867 213.566ZM672.017 217.434H663.081L661.074 223H658.174L666.318 201.672H668.779L676.938 223H674.053L672.017 217.434ZM663.931 215.119H671.182L667.549 205.144L663.931 215.119ZM684.122 214.65V223H681.31V201.672H689.176C691.51 201.672 693.336 202.268 694.654 203.459C695.982 204.65 696.646 206.228 696.646 208.19C696.646 210.261 695.997 211.857 694.698 212.98C693.409 214.094 691.559 214.65 689.146 214.65H684.122ZM684.122 212.351H689.176C690.68 212.351 691.832 211.999 692.633 211.296C693.434 210.583 693.834 209.558 693.834 208.22C693.834 206.95 693.434 205.935 692.633 205.173C691.832 204.411 690.733 204.016 689.337 203.986H684.122V212.351ZM704.548 214.65V223H701.735V201.672H709.602C711.936 201.672 713.762 202.268 715.08 203.459C716.408 204.65 717.072 206.228 717.072 208.19C717.072 210.261 716.423 211.857 715.124 212.98C713.835 214.094 711.984 214.65 709.572 214.65H704.548ZM704.548 212.351H709.602C711.105 212.351 712.258 211.999 713.059 211.296C713.859 210.583 714.26 209.558 714.26 208.22C714.26 206.95 713.859 205.935 713.059 205.173C712.258 204.411 711.159 204.016 709.763 203.986H704.548V212.351ZM731.22 224.831H728.891L737.797 201.672H740.111L731.22 224.831ZM754.136 213.479L744.453 209.685V206.901L756.963 212.438V214.577L744.453 220.129V217.316L754.136 213.479Z" fill="white"/>
<rect x="82" y="355" width="301" height="91" rx="20" fill="#A259FF"/>
<rect x="82" y="355" width="301" height="91" rx="20" fill="#A259FF"/>
<rect x="82" y="355" width="301" height="91" rx="20" fill="#A259FF"/>
<path d="M149.867 401.566L159.037 405.272V408.144L147.055 402.592V400.453L159.037 394.916V397.787L149.867 401.566ZM181.631 411H178.804V401.142H168.052V411H165.239V389.672H168.052V398.842H178.804V389.672H181.631V411ZM194.278 411.293C192.13 411.293 190.382 410.59 189.034 409.184C187.687 407.768 187.013 405.878 187.013 403.515V403.017C187.013 401.444 187.311 400.043 187.906 398.812C188.512 397.572 189.352 396.605 190.426 395.912C191.51 395.209 192.682 394.857 193.941 394.857C196.002 394.857 197.604 395.536 198.746 396.894C199.889 398.251 200.46 400.194 200.46 402.724V403.852H189.723C189.762 405.414 190.216 406.679 191.085 407.646C191.964 408.603 193.077 409.081 194.425 409.081C195.382 409.081 196.192 408.886 196.856 408.495C197.521 408.104 198.102 407.587 198.6 406.942L200.255 408.231C198.927 410.272 196.935 411.293 194.278 411.293ZM193.941 397.084C192.848 397.084 191.93 397.484 191.188 398.285C190.445 399.076 189.986 400.189 189.811 401.625H197.75V401.42C197.672 400.043 197.301 398.979 196.637 398.227C195.973 397.465 195.074 397.084 193.941 397.084ZM214.895 411C214.738 410.688 214.611 410.131 214.514 409.33C213.254 410.639 211.75 411.293 210.002 411.293C208.439 411.293 207.155 410.854 206.149 409.975C205.153 409.086 204.655 407.963 204.655 406.605C204.655 404.955 205.28 403.676 206.53 402.768C207.79 401.85 209.558 401.391 211.833 401.391H214.47V400.146C214.47 399.198 214.187 398.446 213.62 397.89C213.054 397.323 212.219 397.04 211.115 397.04C210.148 397.04 209.338 397.284 208.684 397.772C208.029 398.261 207.702 398.852 207.702 399.545H204.978C204.978 398.754 205.256 397.992 205.812 397.26C206.379 396.518 207.141 395.932 208.098 395.502C209.064 395.072 210.124 394.857 211.276 394.857C213.103 394.857 214.533 395.316 215.568 396.234C216.604 397.143 217.141 398.397 217.18 399.999V407.294C217.18 408.749 217.365 409.906 217.736 410.766V411H214.895ZM210.397 408.935C211.247 408.935 212.053 408.715 212.814 408.275C213.576 407.836 214.128 407.265 214.47 406.562V403.31H212.346C209.025 403.31 207.365 404.281 207.365 406.225C207.365 407.074 207.648 407.738 208.215 408.217C208.781 408.695 209.509 408.935 210.397 408.935ZM222.269 402.943C222.269 400.512 222.845 398.559 223.997 397.084C225.149 395.6 226.658 394.857 228.523 394.857C230.379 394.857 231.849 395.492 232.933 396.762V388.5H235.643V411H233.152L233.021 409.301C231.937 410.629 230.428 411.293 228.494 411.293C226.658 411.293 225.159 410.541 223.997 409.037C222.845 407.533 222.269 405.57 222.269 403.148V402.943ZM224.979 403.251C224.979 405.048 225.35 406.454 226.092 407.47C226.834 408.485 227.859 408.993 229.168 408.993C230.887 408.993 232.142 408.222 232.933 406.679V399.398C232.122 397.904 230.877 397.157 229.197 397.157C227.869 397.157 226.834 397.67 226.092 398.695C225.35 399.721 224.979 401.239 224.979 403.251ZM247.938 411.293C245.79 411.293 244.042 410.59 242.694 409.184C241.347 407.768 240.673 405.878 240.673 403.515V403.017C240.673 401.444 240.971 400.043 241.566 398.812C242.172 397.572 243.012 396.605 244.086 395.912C245.17 395.209 246.342 394.857 247.602 394.857C249.662 394.857 251.264 395.536 252.406 396.894C253.549 398.251 254.12 400.194 254.12 402.724V403.852H243.383C243.422 405.414 243.876 406.679 244.745 407.646C245.624 408.603 246.737 409.081 248.085 409.081C249.042 409.081 249.853 408.886 250.517 408.495C251.181 408.104 251.762 407.587 252.26 406.942L253.915 408.231C252.587 410.272 250.595 411.293 247.938 411.293ZM247.602 397.084C246.508 397.084 245.59 397.484 244.848 398.285C244.105 399.076 243.646 400.189 243.471 401.625H251.41V401.42C251.332 400.043 250.961 398.979 250.297 398.227C249.633 397.465 248.734 397.084 247.602 397.084ZM266.431 397.582C266.021 397.514 265.576 397.479 265.098 397.479C263.32 397.479 262.114 398.236 261.479 399.75V411H258.77V395.15H261.406L261.45 396.981C262.339 395.565 263.599 394.857 265.229 394.857C265.757 394.857 266.157 394.926 266.431 395.062V397.582ZM279.919 412.831H277.59L286.496 389.672H288.811L279.919 412.831ZM302.835 401.479L293.152 397.685V394.901L305.662 400.438V402.577L293.152 408.129V405.316L302.835 401.479Z" fill="white"/>
<rect x="128" y="724" width="301" height="91" rx="20" fill="#A259FF"/>
<rect x="128" y="724" width="301" height="91" rx="20" fill="#A259FF"/>
<rect x="128" y="724" width="301" height="91" rx="20" fill="#A259FF"/>
<path d="M195.867 770.566L205.037 774.272V777.144L193.055 771.592V769.453L205.037 763.916V766.787L195.867 770.566ZM226.928 773.232C226.664 775.488 225.829 777.231 224.423 778.462C223.026 779.683 221.166 780.293 218.842 780.293C216.322 780.293 214.301 779.39 212.777 777.583C211.264 775.776 210.507 773.359 210.507 770.332V768.281C210.507 766.299 210.858 764.556 211.562 763.052C212.274 761.548 213.28 760.396 214.579 759.595C215.878 758.784 217.382 758.379 219.091 758.379C221.356 758.379 223.173 759.014 224.54 760.283C225.907 761.543 226.703 763.291 226.928 765.527H224.101C223.856 763.828 223.324 762.598 222.504 761.836C221.693 761.074 220.556 760.693 219.091 760.693C217.294 760.693 215.883 761.357 214.857 762.686C213.842 764.014 213.334 765.903 213.334 768.354V770.42C213.334 772.734 213.817 774.575 214.784 775.942C215.751 777.31 217.104 777.993 218.842 777.993C220.404 777.993 221.601 777.642 222.431 776.938C223.271 776.226 223.827 774.99 224.101 773.232H226.928ZM241.641 780C241.484 779.688 241.357 779.131 241.26 778.33C240 779.639 238.496 780.293 236.748 780.293C235.186 780.293 233.901 779.854 232.896 778.975C231.899 778.086 231.401 776.963 231.401 775.605C231.401 773.955 232.026 772.676 233.276 771.768C234.536 770.85 236.304 770.391 238.579 770.391H241.216V769.146C241.216 768.198 240.933 767.446 240.366 766.89C239.8 766.323 238.965 766.04 237.861 766.04C236.895 766.04 236.084 766.284 235.43 766.772C234.775 767.261 234.448 767.852 234.448 768.545H231.724C231.724 767.754 232.002 766.992 232.559 766.26C233.125 765.518 233.887 764.932 234.844 764.502C235.811 764.072 236.87 763.857 238.022 763.857C239.849 763.857 241.279 764.316 242.314 765.234C243.35 766.143 243.887 767.397 243.926 768.999V776.294C243.926 777.749 244.111 778.906 244.482 779.766V780H241.641ZM237.144 777.935C237.993 777.935 238.799 777.715 239.561 777.275C240.322 776.836 240.874 776.265 241.216 775.562V772.31H239.092C235.771 772.31 234.111 773.281 234.111 775.225C234.111 776.074 234.395 776.738 234.961 777.217C235.527 777.695 236.255 777.935 237.144 777.935ZM257.335 766.582C256.925 766.514 256.48 766.479 256.002 766.479C254.225 766.479 253.019 767.236 252.384 768.75V780H249.674V764.15H252.311L252.354 765.981C253.243 764.565 254.503 763.857 256.134 763.857C256.661 763.857 257.062 763.926 257.335 764.062V766.582ZM260.388 771.943C260.388 769.512 260.964 767.559 262.116 766.084C263.269 764.6 264.777 763.857 266.643 763.857C268.498 763.857 269.968 764.492 271.052 765.762V757.5H273.762V780H271.271L271.14 778.301C270.056 779.629 268.547 780.293 266.613 780.293C264.777 780.293 263.278 779.541 262.116 778.037C260.964 776.533 260.388 774.57 260.388 772.148V771.943ZM263.098 772.251C263.098 774.048 263.469 775.454 264.211 776.47C264.953 777.485 265.979 777.993 267.287 777.993C269.006 777.993 270.261 777.222 271.052 775.679V768.398C270.241 766.904 268.996 766.157 267.316 766.157C265.988 766.157 264.953 766.67 264.211 767.695C263.469 768.721 263.098 770.239 263.098 772.251ZM282.923 780H280.11V758.672H282.923V780ZM291.718 764.15L291.806 766.143C293.017 764.619 294.599 763.857 296.552 763.857C299.901 763.857 301.591 765.747 301.62 769.526V780H298.91V769.512C298.9 768.369 298.637 767.524 298.119 766.978C297.611 766.431 296.815 766.157 295.731 766.157C294.853 766.157 294.081 766.392 293.417 766.86C292.753 767.329 292.235 767.944 291.864 768.706V780H289.154V764.15H291.718ZM308.54 780V766.245H306.035V764.15H308.54V762.524C308.54 760.825 308.994 759.512 309.902 758.584C310.811 757.656 312.095 757.192 313.755 757.192C314.38 757.192 315 757.275 315.615 757.441L315.469 759.639C315.01 759.551 314.521 759.507 314.004 759.507C313.125 759.507 312.446 759.766 311.968 760.283C311.489 760.791 311.25 761.523 311.25 762.48V764.15H314.634V766.245H311.25V780H308.54ZM318.419 771.929C318.419 770.376 318.722 768.979 319.327 767.739C319.942 766.499 320.792 765.542 321.876 764.868C322.97 764.194 324.215 763.857 325.611 763.857C327.77 763.857 329.513 764.604 330.841 766.099C332.179 767.593 332.848 769.58 332.848 772.061V772.251C332.848 773.794 332.55 775.181 331.954 776.411C331.368 777.632 330.523 778.584 329.42 779.268C328.326 779.951 327.066 780.293 325.641 780.293C323.492 780.293 321.749 779.546 320.411 778.052C319.083 776.558 318.419 774.58 318.419 772.119V771.929ZM321.144 772.251C321.144 774.009 321.549 775.42 322.359 776.484C323.18 777.549 324.273 778.081 325.641 778.081C327.018 778.081 328.111 777.544 328.922 776.47C329.732 775.386 330.138 773.872 330.138 771.929C330.138 770.19 329.723 768.784 328.893 767.71C328.072 766.626 326.979 766.084 325.611 766.084C324.273 766.084 323.194 766.616 322.374 767.681C321.554 768.745 321.144 770.269 321.144 772.251ZM347.229 781.831H344.9L353.807 758.672H356.121L347.229 781.831ZM370.146 770.479L360.463 766.685V763.901L372.973 769.438V771.577L360.463 777.129V774.316L370.146 770.479Z" fill="white"/>
<rect x="575" y="355" width="301" height="91" rx="20" fill="#A259FF"/>
<rect x="575" y="355" width="301" height="91" rx="20" fill="#A259FF"/>
<rect x="575" y="355" width="301" height="91" rx="20" fill="#A259FF"/>
<path d="M661.867 401.566L671.037 405.272V408.144L659.055 402.592V400.453L671.037 394.916V397.787L661.867 401.566ZM692.928 404.232C692.664 406.488 691.829 408.231 690.423 409.462C689.026 410.683 687.166 411.293 684.842 411.293C682.322 411.293 680.301 410.39 678.777 408.583C677.264 406.776 676.507 404.359 676.507 401.332V399.281C676.507 397.299 676.858 395.556 677.562 394.052C678.274 392.548 679.28 391.396 680.579 390.595C681.878 389.784 683.382 389.379 685.091 389.379C687.356 389.379 689.173 390.014 690.54 391.283C691.907 392.543 692.703 394.291 692.928 396.527H690.101C689.856 394.828 689.324 393.598 688.504 392.836C687.693 392.074 686.556 391.693 685.091 391.693C683.294 391.693 681.883 392.357 680.857 393.686C679.842 395.014 679.334 396.903 679.334 399.354V401.42C679.334 403.734 679.817 405.575 680.784 406.942C681.751 408.31 683.104 408.993 684.842 408.993C686.404 408.993 687.601 408.642 688.431 407.938C689.271 407.226 689.827 405.99 690.101 404.232H692.928ZM707.641 411C707.484 410.688 707.357 410.131 707.26 409.33C706 410.639 704.496 411.293 702.748 411.293C701.186 411.293 699.901 410.854 698.896 409.975C697.899 409.086 697.401 407.963 697.401 406.605C697.401 404.955 698.026 403.676 699.276 402.768C700.536 401.85 702.304 401.391 704.579 401.391H707.216V400.146C707.216 399.198 706.933 398.446 706.366 397.89C705.8 397.323 704.965 397.04 703.861 397.04C702.895 397.04 702.084 397.284 701.43 397.772C700.775 398.261 700.448 398.852 700.448 399.545H697.724C697.724 398.754 698.002 397.992 698.559 397.26C699.125 396.518 699.887 395.932 700.844 395.502C701.811 395.072 702.87 394.857 704.022 394.857C705.849 394.857 707.279 395.316 708.314 396.234C709.35 397.143 709.887 398.397 709.926 399.999V407.294C709.926 408.749 710.111 409.906 710.482 410.766V411H707.641ZM703.144 408.935C703.993 408.935 704.799 408.715 705.561 408.275C706.322 407.836 706.874 407.265 707.216 406.562V403.31H705.092C701.771 403.31 700.111 404.281 700.111 406.225C700.111 407.074 700.395 407.738 700.961 408.217C701.527 408.695 702.255 408.935 703.144 408.935ZM723.335 397.582C722.925 397.514 722.48 397.479 722.002 397.479C720.225 397.479 719.019 398.236 718.384 399.75V411H715.674V395.15H718.311L718.354 396.981C719.243 395.565 720.503 394.857 722.134 394.857C722.661 394.857 723.062 394.926 723.335 395.062V397.582ZM726.388 402.943C726.388 400.512 726.964 398.559 728.116 397.084C729.269 395.6 730.777 394.857 732.643 394.857C734.498 394.857 735.968 395.492 737.052 396.762V388.5H739.762V411H737.271L737.14 409.301C736.056 410.629 734.547 411.293 732.613 411.293C730.777 411.293 729.278 410.541 728.116 409.037C726.964 407.533 726.388 405.57 726.388 403.148V402.943ZM729.098 403.251C729.098 405.048 729.469 406.454 730.211 407.47C730.953 408.485 731.979 408.993 733.287 408.993C735.006 408.993 736.261 408.222 737.052 406.679V399.398C736.241 397.904 734.996 397.157 733.316 397.157C731.988 397.157 730.953 397.67 730.211 398.695C729.469 399.721 729.098 401.239 729.098 403.251ZM754.964 412.831H752.635L761.541 389.672H763.855L754.964 412.831ZM777.88 401.479L768.197 397.685V394.901L780.707 400.438V402.577L768.197 408.129V405.316L777.88 401.479Z" fill="white"/>
<rect x="755" y="564" width="301" height="91" rx="20" fill="#1DA1F2"/>
<rect x="755" y="564" width="301" height="91" rx="20" fill="#1DA1F2"/>
<rect x="755" y="564" width="301" height="91" rx="20" fill="#1DA1F2"/>
<path d="M776.867 610.566L786.037 614.272V617.144L774.055 611.592V609.453L786.037 603.916V606.787L776.867 610.566ZM807.928 613.232C807.664 615.488 806.829 617.231 805.423 618.462C804.026 619.683 802.166 620.293 799.842 620.293C797.322 620.293 795.301 619.39 793.777 617.583C792.264 615.776 791.507 613.359 791.507 610.332V608.281C791.507 606.299 791.858 604.556 792.562 603.052C793.274 601.548 794.28 600.396 795.579 599.595C796.878 598.784 798.382 598.379 800.091 598.379C802.356 598.379 804.173 599.014 805.54 600.283C806.907 601.543 807.703 603.291 807.928 605.527H805.101C804.856 603.828 804.324 602.598 803.504 601.836C802.693 601.074 801.556 600.693 800.091 600.693C798.294 600.693 796.883 601.357 795.857 602.686C794.842 604.014 794.334 605.903 794.334 608.354V610.42C794.334 612.734 794.817 614.575 795.784 615.942C796.751 617.31 798.104 617.993 799.842 617.993C801.404 617.993 802.601 617.642 803.431 616.938C804.271 616.226 804.827 614.99 805.101 613.232H807.928ZM815.565 606.069C816.767 604.595 818.329 603.857 820.253 603.857C823.603 603.857 825.292 605.747 825.321 609.526V620H822.611V609.512C822.602 608.369 822.338 607.524 821.82 606.978C821.312 606.431 820.517 606.157 819.433 606.157C818.554 606.157 817.782 606.392 817.118 606.86C816.454 607.329 815.937 607.944 815.565 608.706V620H812.855V597.5H815.565V606.069ZM840.664 620C840.508 619.688 840.381 619.131 840.283 618.33C839.023 619.639 837.52 620.293 835.771 620.293C834.209 620.293 832.925 619.854 831.919 618.975C830.923 618.086 830.425 616.963 830.425 615.605C830.425 613.955 831.05 612.676 832.3 611.768C833.56 610.85 835.327 610.391 837.603 610.391H840.239V609.146C840.239 608.198 839.956 607.446 839.39 606.89C838.823 606.323 837.988 606.04 836.885 606.04C835.918 606.04 835.107 606.284 834.453 606.772C833.799 607.261 833.472 607.852 833.472 608.545H830.747C830.747 607.754 831.025 606.992 831.582 606.26C832.148 605.518 832.91 604.932 833.867 604.502C834.834 604.072 835.894 603.857 837.046 603.857C838.872 603.857 840.303 604.316 841.338 605.234C842.373 606.143 842.91 607.397 842.949 608.999V616.294C842.949 617.749 843.135 618.906 843.506 619.766V620H840.664ZM836.167 617.935C837.017 617.935 837.822 617.715 838.584 617.275C839.346 616.836 839.897 616.265 840.239 615.562V612.31H838.115C834.795 612.31 833.135 613.281 833.135 615.225C833.135 616.074 833.418 616.738 833.984 617.217C834.551 617.695 835.278 617.935 836.167 617.935ZM856.358 606.582C855.948 606.514 855.504 606.479 855.025 606.479C853.248 606.479 852.042 607.236 851.407 608.75V620H848.697V604.15H851.334L851.378 605.981C852.267 604.565 853.526 603.857 855.157 603.857C855.685 603.857 856.085 603.926 856.358 604.062V606.582ZM869.562 620C869.406 619.688 869.279 619.131 869.182 618.33C867.922 619.639 866.418 620.293 864.67 620.293C863.107 620.293 861.823 619.854 860.817 618.975C859.821 618.086 859.323 616.963 859.323 615.605C859.323 613.955 859.948 612.676 861.198 611.768C862.458 610.85 864.226 610.391 866.501 610.391H869.138V609.146C869.138 608.198 868.854 607.446 868.288 606.89C867.722 606.323 866.887 606.04 865.783 606.04C864.816 606.04 864.006 606.284 863.352 606.772C862.697 607.261 862.37 607.852 862.37 608.545H859.646C859.646 607.754 859.924 606.992 860.48 606.26C861.047 605.518 861.809 604.932 862.766 604.502C863.732 604.072 864.792 603.857 865.944 603.857C867.771 603.857 869.201 604.316 870.236 605.234C871.271 606.143 871.809 607.397 871.848 608.999V616.294C871.848 617.749 872.033 618.906 872.404 619.766V620H869.562ZM865.065 617.935C865.915 617.935 866.721 617.715 867.482 617.275C868.244 616.836 868.796 616.265 869.138 615.562V612.31H867.014C863.693 612.31 862.033 613.281 862.033 615.225C862.033 616.074 862.316 616.738 862.883 617.217C863.449 617.695 864.177 617.935 865.065 617.935ZM883.953 618.081C884.92 618.081 885.765 617.788 886.487 617.202C887.21 616.616 887.61 615.884 887.688 615.005H890.252C890.203 615.913 889.891 616.777 889.314 617.598C888.738 618.418 887.967 619.072 887 619.561C886.043 620.049 885.027 620.293 883.953 620.293C881.795 620.293 880.076 619.575 878.797 618.14C877.527 616.694 876.893 614.722 876.893 612.222V611.768C876.893 610.225 877.176 608.853 877.742 607.651C878.309 606.45 879.119 605.518 880.174 604.854C881.238 604.189 882.493 603.857 883.938 603.857C885.716 603.857 887.19 604.39 888.362 605.454C889.544 606.519 890.174 607.9 890.252 609.6H887.688C887.61 608.574 887.22 607.734 886.517 607.08C885.823 606.416 884.964 606.084 883.938 606.084C882.562 606.084 881.492 606.582 880.73 607.578C879.979 608.564 879.603 609.995 879.603 611.87V612.383C879.603 614.209 879.979 615.615 880.73 616.602C881.482 617.588 882.557 618.081 883.953 618.081ZM898.476 600.312V604.15H901.435V606.245H898.476V616.074C898.476 616.709 898.607 617.188 898.871 617.51C899.135 617.822 899.584 617.979 900.219 617.979C900.531 617.979 900.961 617.92 901.508 617.803V620C900.795 620.195 900.102 620.293 899.428 620.293C898.217 620.293 897.304 619.927 896.688 619.194C896.073 618.462 895.766 617.422 895.766 616.074V606.245H892.88V604.15H895.766V600.312H898.476ZM912.69 620.293C910.542 620.293 908.794 619.59 907.446 618.184C906.099 616.768 905.425 614.878 905.425 612.515V612.017C905.425 610.444 905.723 609.043 906.318 607.812C906.924 606.572 907.764 605.605 908.838 604.912C909.922 604.209 911.094 603.857 912.354 603.857C914.414 603.857 916.016 604.536 917.158 605.894C918.301 607.251 918.872 609.194 918.872 611.724V612.852H908.135C908.174 614.414 908.628 615.679 909.497 616.646C910.376 617.603 911.489 618.081 912.837 618.081C913.794 618.081 914.604 617.886 915.269 617.495C915.933 617.104 916.514 616.587 917.012 615.942L918.667 617.231C917.339 619.272 915.347 620.293 912.69 620.293ZM912.354 606.084C911.26 606.084 910.342 606.484 909.6 607.285C908.857 608.076 908.398 609.189 908.223 610.625H916.162V610.42C916.084 609.043 915.713 607.979 915.049 607.227C914.385 606.465 913.486 606.084 912.354 606.084ZM931.183 606.582C930.772 606.514 930.328 606.479 929.85 606.479C928.072 606.479 926.866 607.236 926.231 608.75V620H923.521V604.15H926.158L926.202 605.981C927.091 604.565 928.351 603.857 929.981 603.857C930.509 603.857 930.909 603.926 931.183 604.062V606.582ZM938.63 620H935.817V598.672H938.63V620ZM948.538 600.312V604.15H951.497V606.245H948.538V616.074C948.538 616.709 948.67 617.188 948.934 617.51C949.197 617.822 949.646 617.979 950.281 617.979C950.594 617.979 951.023 617.92 951.57 617.803V620C950.857 620.195 950.164 620.293 949.49 620.293C948.279 620.293 947.366 619.927 946.751 619.194C946.136 618.462 945.828 617.422 945.828 616.074V606.245H942.942V604.15H945.828V600.312H948.538ZM962.753 620.293C960.604 620.293 958.856 619.59 957.509 618.184C956.161 616.768 955.487 614.878 955.487 612.515V612.017C955.487 610.444 955.785 609.043 956.381 607.812C956.986 606.572 957.826 605.605 958.9 604.912C959.984 604.209 961.156 603.857 962.416 603.857C964.477 603.857 966.078 604.536 967.221 605.894C968.363 607.251 968.935 609.194 968.935 611.724V612.852H958.197C958.236 614.414 958.69 615.679 959.56 616.646C960.438 617.603 961.552 618.081 962.899 618.081C963.856 618.081 964.667 617.886 965.331 617.495C965.995 617.104 966.576 616.587 967.074 615.942L968.729 617.231C967.401 619.272 965.409 620.293 962.753 620.293ZM962.416 606.084C961.322 606.084 960.404 606.484 959.662 607.285C958.92 608.076 958.461 609.189 958.285 610.625H966.225V610.42C966.146 609.043 965.775 607.979 965.111 607.227C964.447 606.465 963.549 606.084 962.416 606.084ZM976.133 604.15L976.206 605.908C977.368 604.541 978.936 603.857 980.908 603.857C983.125 603.857 984.634 604.707 985.435 606.406C985.962 605.645 986.646 605.029 987.485 604.561C988.335 604.092 989.336 603.857 990.488 603.857C993.965 603.857 995.732 605.698 995.791 609.38V620H993.081V609.541C993.081 608.408 992.822 607.563 992.305 607.007C991.787 606.44 990.918 606.157 989.697 606.157C988.691 606.157 987.856 606.46 987.192 607.065C986.528 607.661 986.143 608.467 986.035 609.482V620H983.311V609.614C983.311 607.31 982.183 606.157 979.927 606.157C978.149 606.157 976.934 606.914 976.279 608.428V620H973.569V604.15H976.133ZM1010.88 621.831H1008.55L1017.45 598.672H1019.77L1010.88 621.831ZM1033.79 610.479L1024.11 606.685V603.901L1036.62 609.438V611.577L1024.11 617.129V614.316L1033.79 610.479Z" fill="white"/>
<rect x="1006" y="350" width="301" height="91" rx="20" fill="#1DA1F2"/>
<rect x="1006" y="350" width="301" height="91" rx="20" fill="#1DA1F2"/>
<rect x="1006" y="350" width="301" height="91" rx="20" fill="#1DA1F2"/>
<path d="M1053.87 399.566L1063.04 403.272V406.144L1051.05 400.592V398.453L1063.04 392.916V395.787L1053.87 399.566ZM1072.05 400.65V409H1069.24V387.672H1077.11C1079.44 387.672 1081.27 388.268 1082.58 389.459C1083.91 390.65 1084.58 392.228 1084.58 394.19C1084.58 396.261 1083.93 397.857 1082.63 398.98C1081.34 400.094 1079.49 400.65 1077.08 400.65H1072.05ZM1072.05 398.351H1077.11C1078.61 398.351 1079.76 397.999 1080.56 397.296C1081.36 396.583 1081.76 395.558 1081.76 394.22C1081.76 392.95 1081.36 391.935 1080.56 391.173C1079.76 390.411 1078.66 390.016 1077.27 389.986H1072.05V398.351ZM1098.85 409C1098.69 408.688 1098.57 408.131 1098.47 407.33C1097.21 408.639 1095.71 409.293 1093.96 409.293C1092.39 409.293 1091.11 408.854 1090.1 407.975C1089.11 407.086 1088.61 405.963 1088.61 404.605C1088.61 402.955 1089.24 401.676 1090.49 400.768C1091.75 399.85 1093.51 399.391 1095.79 399.391H1098.42V398.146C1098.42 397.198 1098.14 396.446 1097.58 395.89C1097.01 395.323 1096.17 395.04 1095.07 395.04C1094.1 395.04 1093.29 395.284 1092.64 395.772C1091.98 396.261 1091.66 396.852 1091.66 397.545H1088.93C1088.93 396.754 1089.21 395.992 1089.77 395.26C1090.33 394.518 1091.1 393.932 1092.05 393.502C1093.02 393.072 1094.08 392.857 1095.23 392.857C1097.06 392.857 1098.49 393.316 1099.52 394.234C1100.56 395.143 1101.1 396.397 1101.13 397.999V405.294C1101.13 406.749 1101.32 407.906 1101.69 408.766V409H1098.85ZM1094.35 406.935C1095.2 406.935 1096.01 406.715 1096.77 406.275C1097.53 405.836 1098.08 405.265 1098.42 404.562V401.31H1096.3C1092.98 401.31 1091.32 402.281 1091.32 404.225C1091.32 405.074 1091.6 405.738 1092.17 406.217C1092.74 406.695 1093.46 406.935 1094.35 406.935ZM1106.24 400.943C1106.24 398.473 1106.81 396.51 1107.95 395.055C1109.09 393.59 1110.61 392.857 1112.49 392.857C1114.43 392.857 1115.94 393.541 1117.02 394.908L1117.15 393.15H1119.63V408.619C1119.63 410.67 1119.02 412.286 1117.8 413.468C1116.58 414.649 1114.95 415.24 1112.9 415.24C1111.76 415.24 1110.64 414.996 1109.55 414.508C1108.46 414.02 1107.62 413.351 1107.04 412.501L1108.45 410.875C1109.61 412.311 1111.03 413.028 1112.71 413.028C1114.03 413.028 1115.06 412.657 1115.79 411.915C1116.53 411.173 1116.9 410.128 1116.9 408.78V407.418C1115.82 408.668 1114.34 409.293 1112.46 409.293C1110.61 409.293 1109.1 408.546 1107.95 407.052C1106.81 405.558 1106.24 403.521 1106.24 400.943ZM1108.96 401.251C1108.96 403.038 1109.33 404.444 1110.06 405.47C1110.79 406.485 1111.82 406.993 1113.14 406.993C1114.85 406.993 1116.1 406.217 1116.9 404.664V397.428C1116.07 395.914 1114.83 395.157 1113.17 395.157C1111.85 395.157 1110.82 395.67 1110.08 396.695C1109.33 397.721 1108.96 399.239 1108.96 401.251ZM1128.17 409H1125.46V393.15H1128.17V409ZM1125.24 388.946C1125.24 388.507 1125.38 388.136 1125.64 387.833C1125.91 387.53 1126.31 387.379 1126.84 387.379C1127.37 387.379 1127.77 387.53 1128.04 387.833C1128.31 388.136 1128.45 388.507 1128.45 388.946C1128.45 389.386 1128.31 389.752 1128.04 390.045C1127.77 390.338 1127.37 390.484 1126.84 390.484C1126.31 390.484 1125.91 390.338 1125.64 390.045C1125.38 389.752 1125.24 389.386 1125.24 388.946ZM1136.59 393.15L1136.67 395.143C1137.89 393.619 1139.47 392.857 1141.42 392.857C1144.77 392.857 1146.46 394.747 1146.49 398.526V409H1143.78V398.512C1143.77 397.369 1143.51 396.524 1142.99 395.978C1142.48 395.431 1141.68 395.157 1140.6 395.157C1139.72 395.157 1138.95 395.392 1138.29 395.86C1137.62 396.329 1137.1 396.944 1136.73 397.706V409H1134.02V393.15H1136.59ZM1161.86 409C1161.71 408.688 1161.58 408.131 1161.48 407.33C1160.22 408.639 1158.72 409.293 1156.97 409.293C1155.41 409.293 1154.12 408.854 1153.12 407.975C1152.12 407.086 1151.62 405.963 1151.62 404.605C1151.62 402.955 1152.25 401.676 1153.5 400.768C1154.76 399.85 1156.52 399.391 1158.8 399.391H1161.44V398.146C1161.44 397.198 1161.15 396.446 1160.59 395.89C1160.02 395.323 1159.19 395.04 1158.08 395.04C1157.12 395.04 1156.3 395.284 1155.65 395.772C1155 396.261 1154.67 396.852 1154.67 397.545H1151.94C1151.94 396.754 1152.22 395.992 1152.78 395.26C1153.35 394.518 1154.11 393.932 1155.06 393.502C1156.03 393.072 1157.09 392.857 1158.24 392.857C1160.07 392.857 1161.5 393.316 1162.54 394.234C1163.57 395.143 1164.11 396.397 1164.15 397.999V405.294C1164.15 406.749 1164.33 407.906 1164.7 408.766V409H1161.86ZM1157.36 406.935C1158.21 406.935 1159.02 406.715 1159.78 406.275C1160.54 405.836 1161.09 405.265 1161.44 404.562V401.31H1159.31C1155.99 401.31 1154.33 402.281 1154.33 404.225C1154.33 405.074 1154.62 405.738 1155.18 406.217C1155.75 406.695 1156.48 406.935 1157.36 406.935ZM1173.57 389.312V393.15H1176.53V395.245H1173.57V405.074C1173.57 405.709 1173.7 406.188 1173.97 406.51C1174.23 406.822 1174.68 406.979 1175.31 406.979C1175.63 406.979 1176.06 406.92 1176.6 406.803V409C1175.89 409.195 1175.2 409.293 1174.52 409.293C1173.31 409.293 1172.4 408.927 1171.78 408.194C1171.17 407.462 1170.86 406.422 1170.86 405.074V395.245H1167.98V393.15H1170.86V389.312H1173.57ZM1184.15 409H1181.44V393.15H1184.15V409ZM1181.22 388.946C1181.22 388.507 1181.36 388.136 1181.62 387.833C1181.89 387.53 1182.29 387.379 1182.82 387.379C1183.35 387.379 1183.75 387.53 1184.02 387.833C1184.29 388.136 1184.43 388.507 1184.43 388.946C1184.43 389.386 1184.29 389.752 1184.02 390.045C1183.75 390.338 1183.35 390.484 1182.82 390.484C1182.29 390.484 1181.89 390.338 1181.62 390.045C1181.36 389.752 1181.22 389.386 1181.22 388.946ZM1189.29 400.929C1189.29 399.376 1189.59 397.979 1190.19 396.739C1190.81 395.499 1191.66 394.542 1192.74 393.868C1193.84 393.194 1195.08 392.857 1196.48 392.857C1198.64 392.857 1200.38 393.604 1201.71 395.099C1203.05 396.593 1203.71 398.58 1203.71 401.061V401.251C1203.71 402.794 1203.42 404.181 1202.82 405.411C1202.24 406.632 1201.39 407.584 1200.29 408.268C1199.19 408.951 1197.93 409.293 1196.51 409.293C1194.36 409.293 1192.62 408.546 1191.28 407.052C1189.95 405.558 1189.29 403.58 1189.29 401.119V400.929ZM1192.01 401.251C1192.01 403.009 1192.42 404.42 1193.23 405.484C1194.05 406.549 1195.14 407.081 1196.51 407.081C1197.88 407.081 1198.98 406.544 1199.79 405.47C1200.6 404.386 1201 402.872 1201 400.929C1201 399.19 1200.59 397.784 1199.76 396.71C1198.94 395.626 1197.85 395.084 1196.48 395.084C1195.14 395.084 1194.06 395.616 1193.24 396.681C1192.42 397.745 1192.01 399.269 1192.01 401.251ZM1211.18 393.15L1211.26 395.143C1212.48 393.619 1214.06 392.857 1216.01 392.857C1219.36 392.857 1221.05 394.747 1221.08 398.526V409H1218.37V398.512C1218.36 397.369 1218.1 396.524 1217.58 395.978C1217.07 395.431 1216.27 395.157 1215.19 395.157C1214.31 395.157 1213.54 395.392 1212.88 395.86C1212.21 396.329 1211.69 396.944 1211.32 397.706V409H1208.61V393.15H1211.18ZM1236.15 410.831H1233.82L1242.73 387.672H1245.04L1236.15 410.831ZM1259.07 399.479L1249.38 395.685V392.901L1261.89 398.438V400.577L1249.38 406.129V403.316L1259.07 399.479Z" fill="white"/>
<path d="M410.632 338.047C410.106 339.907 411.187 341.841 413.047 342.368L443.356 350.946C445.216 351.472 447.151 350.391 447.677 348.531C448.204 346.671 447.123 344.737 445.263 344.21L418.321 336.585L425.946 309.644C426.472 307.784 425.391 305.849 423.531 305.323C421.671 304.796 419.737 305.877 419.21 307.737L410.632 338.047ZM514.293 278.945L412.293 335.945L415.707 342.055L517.707 285.055L514.293 278.945Z" fill="black"/>
<path d="M979.144 344.871C981.02 344.402 982.159 342.501 981.689 340.626L974.037 310.069C973.568 308.194 971.667 307.055 969.792 307.525C967.917 307.994 966.777 309.895 967.247 311.77L974.049 338.931L946.888 345.733C945.012 346.203 943.873 348.104 944.343 349.979C944.812 351.854 946.713 352.993 948.588 352.524L979.144 344.871ZM876.276 284.402L976.495 344.478L980.094 338.474L879.875 278.398L876.276 284.402Z" fill="black"/>
<path d="M853.672 544.7C855.605 544.711 857.181 543.153 857.192 541.221L857.373 509.721C857.384 507.788 855.826 506.212 853.893 506.201C851.96 506.19 850.384 507.748 850.373 509.681L850.213 537.68L822.213 537.52C820.28 537.509 818.704 539.067 818.693 541C818.682 542.933 820.24 544.509 822.173 544.52L853.672 544.7ZM782.087 473.747L851.203 543.661L856.181 538.74L787.065 468.826L782.087 473.747Z" fill="black"/>
<path d="M737.61 347.301C739.383 348.072 741.445 347.261 742.216 345.488L754.787 316.605C755.559 314.833 754.747 312.771 752.975 311.999C751.202 311.228 749.14 312.04 748.369 313.812L737.195 339.486L711.521 328.312C709.749 327.54 707.686 328.352 706.915 330.124C706.144 331.896 706.955 333.959 708.727 334.73L737.61 347.301ZM709.743 279.282L735.75 345.373L742.264 342.81L716.257 276.718L709.743 279.282Z" fill="black"/>
<path d="M511.65 69.4C511.65 65.9333 512.4 62.85 513.9 60.15C515.4 57.4167 517.483 55.3 520.15 53.8C522.85 52.2667 525.9 51.5 529.3 51.5C533.467 51.5 537.033 52.6 540 54.8C542.967 57 544.95 60 545.95 63.8H536.55C535.85 62.3333 534.85 61.2167 533.55 60.45C532.283 59.6833 530.833 59.3 529.2 59.3C526.567 59.3 524.433 60.2167 522.8 62.05C521.167 63.8833 520.35 66.3333 520.35 69.4C520.35 72.4667 521.167 74.9167 522.8 76.75C524.433 78.5833 526.567 79.5 529.2 79.5C530.833 79.5 532.283 79.1167 533.55 78.35C534.85 77.5833 535.85 76.4667 536.55 75H545.95C544.95 78.8 542.967 81.8 540 84C537.033 86.1667 533.467 87.25 529.3 87.25C525.9 87.25 522.85 86.5 520.15 85C517.483 83.4667 515.4 81.35 513.9 78.65C512.4 75.95 511.65 72.8667 511.65 69.4ZM568.886 87.4C566.153 87.4 563.686 86.8167 561.486 85.65C559.319 84.4833 557.603 82.8167 556.336 80.65C555.103 78.4833 554.486 75.95 554.486 73.05C554.486 70.1833 555.119 67.6667 556.386 65.5C557.653 63.3 559.386 61.6167 561.586 60.45C563.786 59.2833 566.253 58.7 568.986 58.7C571.719 58.7 574.186 59.2833 576.386 60.45C578.586 61.6167 580.319 63.3 581.586 65.5C582.853 67.6667 583.486 70.1833 583.486 73.05C583.486 75.9167 582.836 78.45 581.536 80.65C580.269 82.8167 578.519 84.4833 576.286 85.65C574.086 86.8167 571.619 87.4 568.886 87.4ZM568.886 80C570.519 80 571.903 79.4 573.036 78.2C574.203 77 574.786 75.2833 574.786 73.05C574.786 70.8167 574.219 69.1 573.086 67.9C571.986 66.7 570.619 66.1 568.986 66.1C567.319 66.1 565.936 66.7 564.836 67.9C563.736 69.0667 563.186 70.7833 563.186 73.05C563.186 75.2833 563.719 77 564.786 78.2C565.886 79.4 567.253 80 568.886 80ZM628.622 58.8C632.089 58.8 634.839 59.85 636.872 61.95C638.939 64.05 639.972 66.9667 639.972 70.7V87H631.472V71.85C631.472 70.05 630.989 68.6667 630.022 67.7C629.089 66.7 627.789 66.2 626.122 66.2C624.455 66.2 623.139 66.7 622.172 67.7C621.239 68.6667 620.772 70.05 620.772 71.85V87H612.272V71.85C612.272 70.05 611.789 68.6667 610.822 67.7C609.889 66.7 608.589 66.2 606.922 66.2C605.255 66.2 603.939 66.7 602.972 67.7C602.039 68.6667 601.572 70.05 601.572 71.85V87H593.022V59.1H601.572V62.6C602.439 61.4333 603.572 60.5167 604.972 59.85C606.372 59.15 607.955 58.8 609.722 58.8C611.822 58.8 613.689 59.25 615.322 60.15C616.989 61.05 618.289 62.3333 619.222 64C620.189 62.4667 621.505 61.2167 623.172 60.25C624.839 59.2833 626.655 58.8 628.622 58.8ZM659.502 63.05C660.335 61.75 661.485 60.7 662.952 59.9C664.418 59.1 666.135 58.7 668.102 58.7C670.402 58.7 672.485 59.2833 674.352 60.45C676.218 61.6167 677.685 63.2833 678.752 65.45C679.852 67.6167 680.402 70.1333 680.402 73C680.402 75.8667 679.852 78.4 678.752 80.6C677.685 82.7667 676.218 84.45 674.352 85.65C672.485 86.8167 670.402 87.4 668.102 87.4C666.168 87.4 664.452 87 662.952 86.2C661.485 85.4 660.335 84.3667 659.502 83.1V100.3H650.952V59.1H659.502V63.05ZM671.702 73C671.702 70.8667 671.102 69.2 669.902 68C668.735 66.7667 667.285 66.15 665.552 66.15C663.852 66.15 662.402 66.7667 661.202 68C660.035 69.2333 659.452 70.9167 659.452 73.05C659.452 75.1833 660.035 76.8667 661.202 78.1C662.402 79.3333 663.852 79.95 665.552 79.95C667.252 79.95 668.702 79.3333 669.902 78.1C671.102 76.8333 671.702 75.1333 671.702 73ZM702.587 87.4C699.854 87.4 697.387 86.8167 695.187 85.65C693.02 84.4833 691.304 82.8167 690.037 80.65C688.804 78.4833 688.187 75.95 688.187 73.05C688.187 70.1833 688.82 67.6667 690.087 65.5C691.354 63.3 693.087 61.6167 695.287 60.45C697.487 59.2833 699.954 58.7 702.687 58.7C705.42 58.7 707.887 59.2833 710.087 60.45C712.287 61.6167 714.02 63.3 715.287 65.5C716.554 67.6667 717.187 70.1833 717.187 73.05C717.187 75.9167 716.537 78.45 715.237 80.65C713.97 82.8167 712.22 84.4833 709.987 85.65C707.787 86.8167 705.32 87.4 702.587 87.4ZM702.587 80C704.22 80 705.604 79.4 706.737 78.2C707.904 77 708.487 75.2833 708.487 73.05C708.487 70.8167 707.92 69.1 706.787 67.9C705.687 66.7 704.32 66.1 702.687 66.1C701.02 66.1 699.637 66.7 698.537 67.9C697.437 69.0667 696.887 70.7833 696.887 73.05C696.887 75.2833 697.42 77 698.487 78.2C699.587 79.4 700.954 80 702.587 80ZM743.723 58.8C746.99 58.8 749.59 59.8667 751.523 62C753.49 64.1 754.473 67 754.473 70.7V87H745.973V71.85C745.973 69.9833 745.49 68.5333 744.523 67.5C743.556 66.4667 742.256 65.95 740.623 65.95C738.99 65.95 737.69 66.4667 736.723 67.5C735.756 68.5333 735.273 69.9833 735.273 71.85V87H726.723V59.1H735.273V62.8C736.14 61.5667 737.306 60.6 738.773 59.9C740.24 59.1667 741.89 58.8 743.723 58.8ZM791.714 72.6C791.714 73.4 791.664 74.2333 791.564 75.1H772.214C772.348 76.8333 772.898 78.1667 773.864 79.1C774.864 80 776.081 80.45 777.514 80.45C779.648 80.45 781.131 79.55 781.964 77.75H791.064C790.598 79.5833 789.748 81.2333 788.514 82.7C787.314 84.1667 785.798 85.3167 783.964 86.15C782.131 86.9833 780.081 87.4 777.814 87.4C775.081 87.4 772.648 86.8167 770.514 85.65C768.381 84.4833 766.714 82.8167 765.514 80.65C764.314 78.4833 763.714 75.95 763.714 73.05C763.714 70.15 764.298 67.6167 765.464 65.45C766.664 63.2833 768.331 61.6167 770.464 60.45C772.598 59.2833 775.048 58.7 777.814 58.7C780.514 58.7 782.914 59.2667 785.014 60.4C787.114 61.5333 788.748 63.15 789.914 65.25C791.114 67.35 791.714 69.8 791.714 72.6ZM782.964 70.35C782.964 68.8833 782.464 67.7167 781.464 66.85C780.464 65.9833 779.214 65.55 777.714 65.55C776.281 65.55 775.064 65.9667 774.064 66.8C773.098 67.6333 772.498 68.8167 772.264 70.35H782.964ZM818.225 58.8C821.492 58.8 824.092 59.8667 826.025 62C827.992 64.1 828.975 67 828.975 70.7V87H820.475V71.85C820.475 69.9833 819.992 68.5333 819.025 67.5C818.058 66.4667 816.758 65.95 815.125 65.95C813.492 65.95 812.192 66.4667 811.225 67.5C810.258 68.5333 809.775 69.9833 809.775 71.85V87H801.225V59.1H809.775V62.8C810.642 61.5667 811.808 60.6 813.275 59.9C814.742 59.1667 816.392 58.8 818.225 58.8ZM855.466 79.75V87H851.116C848.016 87 845.6 86.25 843.866 84.75C842.133 83.2167 841.266 80.7333 841.266 77.3V66.2H837.866V59.1H841.266V52.3H849.816V59.1H855.416V66.2H849.816V77.4C849.816 78.2333 850.016 78.8333 850.416 79.2C850.816 79.5667 851.483 79.75 852.416 79.75H855.466ZM906.075 51.9V58.75H896.775V87H888.225V58.75H878.925V51.9H906.075ZM923.916 63.75C924.916 62.2167 926.166 61.0167 927.666 60.15C929.166 59.25 930.832 58.8 932.666 58.8V67.85H930.316C928.182 67.85 926.582 68.3167 925.516 69.25C924.449 70.15 923.916 71.75 923.916 74.05V87H915.366V59.1H923.916V63.75ZM968.052 72.6C968.052 73.4 968.002 74.2333 967.902 75.1H948.552C948.686 76.8333 949.236 78.1667 950.202 79.1C951.202 80 952.419 80.45 953.852 80.45C955.986 80.45 957.469 79.55 958.302 77.75H967.402C966.936 79.5833 966.086 81.2333 964.852 82.7C963.652 84.1667 962.136 85.3167 960.302 86.15C958.469 86.9833 956.419 87.4 954.152 87.4C951.419 87.4 948.986 86.8167 946.852 85.65C944.719 84.4833 943.052 82.8167 941.852 80.65C940.652 78.4833 940.052 75.95 940.052 73.05C940.052 70.15 940.636 67.6167 941.802 65.45C943.002 63.2833 944.669 61.6167 946.802 60.45C948.936 59.2833 951.386 58.7 954.152 58.7C956.852 58.7 959.252 59.2667 961.352 60.4C963.452 61.5333 965.086 63.15 966.252 65.25C967.452 67.35 968.052 69.8 968.052 72.6ZM959.302 70.35C959.302 68.8833 958.802 67.7167 957.802 66.85C956.802 65.9833 955.552 65.55 954.052 65.55C952.619 65.55 951.402 65.9667 950.402 66.8C949.436 67.6333 948.836 68.8167 948.602 70.35H959.302ZM1003.86 72.6C1003.86 73.4 1003.81 74.2333 1003.71 75.1H984.363C984.496 76.8333 985.046 78.1667 986.013 79.1C987.013 80 988.23 80.45 989.663 80.45C991.796 80.45 993.28 79.55 994.113 77.75H1003.21C1002.75 79.5833 1001.9 81.2333 1000.66 82.7C999.463 84.1667 997.946 85.3167 996.113 86.15C994.28 86.9833 992.23 87.4 989.963 87.4C987.23 87.4 984.796 86.8167 982.663 85.65C980.53 84.4833 978.863 82.8167 977.663 80.65C976.463 78.4833 975.863 75.95 975.863 73.05C975.863 70.15 976.446 67.6167 977.613 65.45C978.813 63.2833 980.48 61.6167 982.613 60.45C984.746 59.2833 987.196 58.7 989.963 58.7C992.663 58.7 995.063 59.2667 997.163 60.4C999.263 61.5333 1000.9 63.15 1002.06 65.25C1003.26 67.35 1003.86 69.8 1003.86 72.6ZM995.113 70.35C995.113 68.8833 994.613 67.7167 993.613 66.85C992.613 65.9833 991.363 65.55 989.863 65.55C988.43 65.55 987.213 65.9667 986.213 66.8C985.246 67.6333 984.646 68.8167 984.413 70.35H995.113Z" fill="#7BCE5E"/>
<path d="M894.048 207.908C894.696 206.78 895.656 205.844 896.928 205.1C898.224 204.332 899.724 203.948 901.428 203.948C903.18 203.948 904.764 204.368 906.18 205.208C907.62 206.048 908.748 207.236 909.564 208.772C910.38 210.284 910.788 212.048 910.788 214.064C910.788 216.056 910.38 217.832 909.564 219.392C908.748 220.952 907.62 222.164 906.18 223.028C904.764 223.892 903.18 224.324 901.428 224.324C899.748 224.324 898.26 223.952 896.964 223.208C895.692 222.44 894.72 221.492 894.048 220.364V233.36H890.772V204.272H894.048V207.908ZM907.44 214.064C907.44 212.576 907.14 211.28 906.54 210.176C905.94 209.072 905.124 208.232 904.092 207.656C903.084 207.08 901.968 206.792 900.744 206.792C899.544 206.792 898.428 207.092 897.396 207.692C896.388 208.268 895.572 209.12 894.948 210.248C894.348 211.352 894.048 212.636 894.048 214.1C894.048 215.588 894.348 216.896 894.948 218.024C895.572 219.128 896.388 219.98 897.396 220.58C898.428 221.156 899.544 221.444 900.744 221.444C901.968 221.444 903.084 221.156 904.092 220.58C905.124 219.98 905.94 219.128 906.54 218.024C907.14 216.896 907.44 215.576 907.44 214.064ZM917.476 214.064C917.476 212.048 917.884 210.284 918.7 208.772C919.516 207.236 920.632 206.048 922.048 205.208C923.488 204.368 925.084 203.948 926.836 203.948C928.564 203.948 930.064 204.32 931.336 205.064C932.608 205.808 933.556 206.744 934.18 207.872V204.272H937.492V224H934.18V220.328C933.532 221.48 932.56 222.44 931.264 223.208C929.992 223.952 928.504 224.324 926.8 224.324C925.048 224.324 923.464 223.892 922.048 223.028C920.632 222.164 919.516 220.952 918.7 219.392C917.884 217.832 917.476 216.056 917.476 214.064ZM934.18 214.1C934.18 212.612 933.88 211.316 933.28 210.212C932.68 209.108 931.864 208.268 930.832 207.692C929.824 207.092 928.708 206.792 927.484 206.792C926.26 206.792 925.144 207.08 924.136 207.656C923.128 208.232 922.324 209.072 921.724 210.176C921.124 211.28 920.824 212.576 920.824 214.064C920.824 215.576 921.124 216.896 921.724 218.024C922.324 219.128 923.128 219.98 924.136 220.58C925.144 221.156 926.26 221.444 927.484 221.444C928.708 221.444 929.824 221.156 930.832 220.58C931.864 219.98 932.68 219.128 933.28 218.024C933.88 216.896 934.18 215.588 934.18 214.1ZM950.624 206.972V218.6C950.624 219.56 950.828 220.244 951.236 220.652C951.644 221.036 952.352 221.228 953.36 221.228H955.772V224H952.82C950.996 224 949.628 223.58 948.716 222.74C947.804 221.9 947.348 220.52 947.348 218.6V206.972H944.792V204.272H947.348V199.304H950.624V204.272H955.772V206.972H950.624ZM973.134 203.912C974.622 203.912 975.966 204.236 977.166 204.884C978.366 205.508 979.302 206.456 979.974 207.728C980.67 209 981.018 210.548 981.018 212.372V224H977.778V212.84C977.778 210.872 977.286 209.372 976.302 208.34C975.318 207.284 973.974 206.756 972.27 206.756C970.542 206.756 969.162 207.296 968.13 208.376C967.122 209.456 966.618 211.028 966.618 213.092V224H963.342V197.36H966.618V207.08C967.266 206.072 968.154 205.292 969.282 204.74C970.434 204.188 971.718 203.912 973.134 203.912ZM1004.21 224.216C1003.59 224.216 1003.06 224 1002.63 223.568C1002.19 223.136 1001.98 222.608 1001.98 221.984C1001.98 221.36 1002.19 220.832 1002.63 220.4C1003.06 219.968 1003.59 219.752 1004.21 219.752C1004.81 219.752 1005.31 219.968 1005.72 220.4C1006.15 220.832 1006.37 221.36 1006.37 221.984C1006.37 222.608 1006.15 223.136 1005.72 223.568C1005.31 224 1004.81 224.216 1004.21 224.216ZM1004.21 208.808C1003.59 208.808 1003.06 208.592 1002.63 208.16C1002.19 207.728 1001.98 207.2 1001.98 206.576C1001.98 205.952 1002.19 205.424 1002.63 204.992C1003.06 204.56 1003.59 204.344 1004.21 204.344C1004.81 204.344 1005.31 204.56 1005.72 204.992C1006.15 205.424 1006.37 205.952 1006.37 206.576C1006.37 207.2 1006.15 207.728 1005.72 208.16C1005.31 208.592 1004.81 208.808 1004.21 208.808ZM1029.39 207.08H1025.72L1029.18 198.908H1031.52L1029.39 207.08ZM1051.34 190.088L1041.48 230.12H1038.24L1048.07 190.088H1051.34ZM1060.33 198.908H1063.96L1060.51 207.08H1058.2L1060.33 198.908Z" fill="black"/>
<path d="M149.36 680.06C149.72 679.433 150.253 678.913 150.96 678.5C151.68 678.073 152.513 677.86 153.46 677.86C154.433 677.86 155.313 678.093 156.1 678.56C156.9 679.027 157.527 679.687 157.98 680.54C158.433 681.38 158.66 682.36 158.66 683.48C158.66 684.587 158.433 685.573 157.98 686.44C157.527 687.307 156.9 687.98 156.1 688.46C155.313 688.94 154.433 689.18 153.46 689.18C152.527 689.18 151.7 688.973 150.98 688.56C150.273 688.133 149.733 687.607 149.36 686.98V694.2H147.54V678.04H149.36V680.06ZM156.8 683.48C156.8 682.653 156.633 681.933 156.3 681.32C155.967 680.707 155.513 680.24 154.94 679.92C154.38 679.6 153.76 679.44 153.08 679.44C152.413 679.44 151.793 679.607 151.22 679.94C150.66 680.26 150.207 680.733 149.86 681.36C149.527 681.973 149.36 682.687 149.36 683.5C149.36 684.327 149.527 685.053 149.86 685.68C150.207 686.293 150.66 686.767 151.22 687.1C151.793 687.42 152.413 687.58 153.08 687.58C153.76 687.58 154.38 687.42 154.94 687.1C155.513 686.767 155.967 686.293 156.3 685.68C156.633 685.053 156.8 684.32 156.8 683.48ZM162.376 683.48C162.376 682.36 162.602 681.38 163.056 680.54C163.509 679.687 164.129 679.027 164.916 678.56C165.716 678.093 166.602 677.86 167.576 677.86C168.536 677.86 169.369 678.067 170.076 678.48C170.782 678.893 171.309 679.413 171.656 680.04V678.04H173.496V689H171.656V686.96C171.296 687.6 170.756 688.133 170.036 688.56C169.329 688.973 168.502 689.18 167.556 689.18C166.582 689.18 165.702 688.94 164.916 688.46C164.129 687.98 163.509 687.307 163.056 686.44C162.602 685.573 162.376 684.587 162.376 683.48ZM171.656 683.5C171.656 682.673 171.489 681.953 171.156 681.34C170.822 680.727 170.369 680.26 169.796 679.94C169.236 679.607 168.616 679.44 167.936 679.44C167.256 679.44 166.636 679.6 166.076 679.92C165.516 680.24 165.069 680.707 164.736 681.32C164.402 681.933 164.236 682.653 164.236 683.48C164.236 684.32 164.402 685.053 164.736 685.68C165.069 686.293 165.516 686.767 166.076 687.1C166.636 687.42 167.256 687.58 167.936 687.58C168.616 687.58 169.236 687.42 169.796 687.1C170.369 686.767 170.822 686.293 171.156 685.68C171.489 685.053 171.656 684.327 171.656 683.5ZM180.791 679.54V686C180.791 686.533 180.905 686.913 181.131 687.14C181.358 687.353 181.751 687.46 182.311 687.46H183.651V689H182.011C180.998 689 180.238 688.767 179.731 688.3C179.225 687.833 178.971 687.067 178.971 686V679.54H177.551V678.04H178.971V675.28H180.791V678.04H183.651V679.54H180.791ZM193.296 677.84C194.123 677.84 194.87 678.02 195.536 678.38C196.203 678.727 196.723 679.253 197.096 679.96C197.483 680.667 197.676 681.527 197.676 682.54V689H195.876V682.8C195.876 681.707 195.603 680.873 195.056 680.3C194.51 679.713 193.763 679.42 192.816 679.42C191.856 679.42 191.09 679.72 190.516 680.32C189.956 680.92 189.676 681.793 189.676 682.94V689H187.856V674.2H189.676V679.6C190.036 679.04 190.53 678.607 191.156 678.3C191.796 677.993 192.51 677.84 193.296 677.84ZM210.561 689.12C210.215 689.12 209.921 689 209.681 688.76C209.441 688.52 209.321 688.227 209.321 687.88C209.321 687.533 209.441 687.24 209.681 687C209.921 686.76 210.215 686.64 210.561 686.64C210.895 686.64 211.175 686.76 211.401 687C211.641 687.24 211.761 687.533 211.761 687.88C211.761 688.227 211.641 688.52 211.401 688.76C211.175 689 210.895 689.12 210.561 689.12ZM210.561 680.56C210.215 680.56 209.921 680.44 209.681 680.2C209.441 679.96 209.321 679.667 209.321 679.32C209.321 678.973 209.441 678.68 209.681 678.44C209.921 678.2 210.215 678.08 210.561 678.08C210.895 678.08 211.175 678.2 211.401 678.44C211.641 678.68 211.761 678.973 211.761 679.32C211.761 679.667 211.641 679.96 211.401 680.2C211.175 680.44 210.895 680.56 210.561 680.56ZM224.551 679.6H222.511L224.431 675.06H225.731L224.551 679.6ZM236.746 670.16L231.266 692.4H229.466L234.926 670.16H236.746ZM242.398 676.26C242.051 676.26 241.758 676.14 241.518 675.9C241.278 675.66 241.158 675.367 241.158 675.02C241.158 674.673 241.278 674.38 241.518 674.14C241.758 673.9 242.051 673.78 242.398 673.78C242.731 673.78 243.011 673.9 243.238 674.14C243.478 674.38 243.598 674.673 243.598 675.02C243.598 675.367 243.478 675.66 243.238 675.9C243.011 676.14 242.731 676.26 242.398 676.26ZM243.278 678.04V689H241.458V678.04H243.278ZM247.7 683.48C247.7 682.36 247.927 681.38 248.38 680.54C248.833 679.687 249.453 679.027 250.24 678.56C251.04 678.093 251.933 677.86 252.92 677.86C253.773 677.86 254.567 678.06 255.3 678.46C256.033 678.847 256.593 679.36 256.98 680V674.2H258.82V689H256.98V686.94C256.62 687.593 256.087 688.133 255.38 688.56C254.673 688.973 253.847 689.18 252.9 689.18C251.927 689.18 251.04 688.94 250.24 688.46C249.453 687.98 248.833 687.307 248.38 686.44C247.927 685.573 247.7 684.587 247.7 683.48ZM256.98 683.5C256.98 682.673 256.813 681.953 256.48 681.34C256.147 680.727 255.693 680.26 255.12 679.94C254.56 679.607 253.94 679.44 253.26 679.44C252.58 679.44 251.96 679.6 251.4 679.92C250.84 680.24 250.393 680.707 250.06 681.32C249.727 681.933 249.56 682.653 249.56 683.48C249.56 684.32 249.727 685.053 250.06 685.68C250.393 686.293 250.84 686.767 251.4 687.1C251.96 687.42 252.58 687.58 253.26 687.58C253.94 687.58 254.56 687.42 255.12 687.1C255.693 686.767 256.147 686.293 256.48 685.68C256.813 685.053 256.98 684.327 256.98 683.5ZM264.475 689.12C264.129 689.12 263.835 689 263.595 688.76C263.355 688.52 263.235 688.227 263.235 687.88C263.235 687.533 263.355 687.24 263.595 687C263.835 686.76 264.129 686.64 264.475 686.64C264.809 686.64 265.089 686.76 265.315 687C265.555 687.24 265.675 687.533 265.675 687.88C265.675 688.227 265.555 688.52 265.315 688.76C265.089 689 264.809 689.12 264.475 689.12ZM264.475 680.56C264.129 680.56 263.835 680.44 263.595 680.2C263.355 679.96 263.235 679.667 263.235 679.32C263.235 678.973 263.355 678.68 263.595 678.44C263.835 678.2 264.129 678.08 264.475 678.08C264.809 678.08 265.089 678.2 265.315 678.44C265.555 678.68 265.675 678.973 265.675 679.32C265.675 679.667 265.555 679.96 265.315 680.2C265.089 680.44 264.809 680.56 264.475 680.56ZM270.713 680.82C272.073 680.567 272.753 679.867 272.753 678.72C272.753 678.213 272.687 677.347 272.553 676.12C272.42 674.813 272.353 673.867 272.353 673.28C272.353 672.32 272.62 671.587 273.153 671.08C273.7 670.573 274.427 670.32 275.333 670.32H276.493V671.9H275.673C275.153 671.9 274.767 672.02 274.513 672.26C274.26 672.487 274.133 672.867 274.133 673.4C274.133 673.787 274.16 674.267 274.213 674.84C274.267 675.4 274.3 675.78 274.313 675.98C274.447 677.26 274.513 678.193 274.513 678.78C274.513 679.487 274.333 680.08 273.973 680.56C273.627 681.027 273.087 681.34 272.353 681.5V681.54C273.087 681.7 273.627 682.02 273.973 682.5C274.333 682.98 274.513 683.573 274.513 684.28C274.513 684.867 274.447 685.8 274.313 687.08C274.3 687.28 274.267 687.667 274.213 688.24C274.16 688.8 274.133 689.273 274.133 689.66C274.133 690.193 274.26 690.573 274.513 690.8C274.767 691.04 275.153 691.16 275.673 691.16H276.493V692.74H275.333C274.427 692.74 273.7 692.487 273.153 691.98C272.62 691.473 272.353 690.74 272.353 689.78C272.353 689.193 272.42 688.247 272.553 686.94C272.687 685.713 272.753 684.847 272.753 684.34C272.753 683.193 272.073 682.493 270.713 682.24V680.82ZM280.712 682.02C280.712 680.66 281.018 679.44 281.632 678.36C282.245 677.267 283.078 676.413 284.132 675.8C285.198 675.187 286.378 674.88 287.672 674.88C289.192 674.88 290.518 675.247 291.652 675.98C292.785 676.713 293.612 677.753 294.132 679.1H291.952C291.565 678.26 291.005 677.613 290.272 677.16C289.552 676.707 288.685 676.48 287.672 676.48C286.698 676.48 285.825 676.707 285.052 677.16C284.278 677.613 283.672 678.26 283.232 679.1C282.792 679.927 282.572 680.9 282.572 682.02C282.572 683.127 282.792 684.1 283.232 684.94C283.672 685.767 284.278 686.407 285.052 686.86C285.825 687.313 286.698 687.54 287.672 687.54C288.685 687.54 289.552 687.32 290.272 686.88C291.005 686.427 291.565 685.78 291.952 684.94H294.132C293.612 686.273 292.785 687.307 291.652 688.04C290.518 688.76 289.192 689.12 287.672 689.12C286.378 689.12 285.198 688.82 284.132 688.22C283.078 687.607 282.245 686.76 281.632 685.68C281.018 684.6 280.712 683.38 280.712 682.02ZM304.281 677.84C305.107 677.84 305.854 678.02 306.521 678.38C307.187 678.727 307.707 679.253 308.081 679.96C308.467 680.667 308.661 681.527 308.661 682.54V689H306.861V682.8C306.861 681.707 306.587 680.873 306.041 680.3C305.494 679.713 304.747 679.42 303.801 679.42C302.841 679.42 302.074 679.72 301.501 680.32C300.941 680.92 300.661 681.793 300.661 682.94V689H298.841V674.2H300.661V679.6C301.021 679.04 301.514 678.607 302.141 678.3C302.781 677.993 303.494 677.84 304.281 677.84ZM312.954 683.48C312.954 682.36 313.18 681.38 313.634 680.54C314.087 679.687 314.707 679.027 315.494 678.56C316.294 678.093 317.18 677.86 318.154 677.86C319.114 677.86 319.947 678.067 320.654 678.48C321.36 678.893 321.887 679.413 322.234 680.04V678.04H324.074V689H322.234V686.96C321.874 687.6 321.334 688.133 320.614 688.56C319.907 688.973 319.08 689.18 318.134 689.18C317.16 689.18 316.28 688.94 315.494 688.46C314.707 687.98 314.087 687.307 313.634 686.44C313.18 685.573 312.954 684.587 312.954 683.48ZM322.234 683.5C322.234 682.673 322.067 681.953 321.734 681.34C321.4 680.727 320.947 680.26 320.374 679.94C319.814 679.607 319.194 679.44 318.514 679.44C317.834 679.44 317.214 679.6 316.654 679.92C316.094 680.24 315.647 680.707 315.314 681.32C314.98 681.933 314.814 682.653 314.814 683.48C314.814 684.32 314.98 685.053 315.314 685.68C315.647 686.293 316.094 686.767 316.654 687.1C317.214 687.42 317.834 687.58 318.514 687.58C319.194 687.58 319.814 687.42 320.374 687.1C320.947 686.767 321.4 686.293 321.734 685.68C322.067 685.053 322.234 684.327 322.234 683.5ZM330.969 679.82C331.289 679.193 331.743 678.707 332.329 678.36C332.929 678.013 333.656 677.84 334.509 677.84V679.72H334.029C331.989 679.72 330.969 680.827 330.969 683.04V689H329.149V678.04H330.969V679.82ZM349.81 689.76V691.44H339.17V689.76H349.81ZM356.218 676.26C355.872 676.26 355.578 676.14 355.338 675.9C355.098 675.66 354.978 675.367 354.978 675.02C354.978 674.673 355.098 674.38 355.338 674.14C355.578 673.9 355.872 673.78 356.218 673.78C356.552 673.78 356.832 673.9 357.058 674.14C357.298 674.38 357.418 674.673 357.418 675.02C357.418 675.367 357.298 675.66 357.058 675.9C356.832 676.14 356.552 676.26 356.218 676.26ZM357.098 678.04V689H355.278V678.04H357.098ZM361.52 683.48C361.52 682.36 361.747 681.38 362.2 680.54C362.653 679.687 363.273 679.027 364.06 678.56C364.86 678.093 365.753 677.86 366.74 677.86C367.593 677.86 368.387 678.06 369.12 678.46C369.853 678.847 370.413 679.36 370.8 680V674.2H372.64V689H370.8V686.94C370.44 687.593 369.907 688.133 369.2 688.56C368.493 688.973 367.667 689.18 366.72 689.18C365.747 689.18 364.86 688.94 364.06 688.46C363.273 687.98 362.653 687.307 362.2 686.44C361.747 685.573 361.52 684.587 361.52 683.48ZM370.8 683.5C370.8 682.673 370.633 681.953 370.3 681.34C369.967 680.727 369.513 680.26 368.94 679.94C368.38 679.607 367.76 679.44 367.08 679.44C366.4 679.44 365.78 679.6 365.22 679.92C364.66 680.24 364.213 680.707 363.88 681.32C363.547 681.933 363.38 682.653 363.38 683.48C363.38 684.32 363.547 685.053 363.88 685.68C364.213 686.293 364.66 686.767 365.22 687.1C365.78 687.42 366.4 687.58 367.08 687.58C367.76 687.58 368.38 687.42 368.94 687.1C369.513 686.767 369.967 686.293 370.3 685.68C370.633 685.053 370.8 684.327 370.8 683.5ZM383.316 682.24C381.956 682.493 381.276 683.193 381.276 684.34C381.276 684.847 381.342 685.713 381.476 686.94C381.609 688.247 381.676 689.193 381.676 689.78C381.676 690.74 381.402 691.473 380.856 691.98C380.322 692.487 379.602 692.74 378.696 692.74H377.536V691.16H378.356C378.876 691.16 379.262 691.04 379.516 690.8C379.769 690.573 379.896 690.193 379.896 689.66C379.896 689.273 379.869 688.8 379.816 688.24C379.762 687.667 379.729 687.28 379.716 687.08C379.582 685.8 379.516 684.867 379.516 684.28C379.516 683.573 379.689 682.98 380.036 682.5C380.396 682.02 380.942 681.7 381.676 681.54V681.5C380.942 681.34 380.396 681.027 380.036 680.56C379.689 680.08 379.516 679.487 379.516 678.78C379.516 678.193 379.582 677.26 379.716 675.98C379.729 675.78 379.762 675.4 379.816 674.84C379.869 674.267 379.896 673.787 379.896 673.4C379.896 672.867 379.769 672.487 379.516 672.26C379.262 672.02 378.876 671.9 378.356 671.9H377.536V670.32H378.696C379.602 670.32 380.322 670.573 380.856 671.08C381.402 671.587 381.676 672.32 381.676 673.28C381.676 673.867 381.609 674.813 381.476 676.12C381.342 677.347 381.276 678.213 381.276 678.72C381.276 679.867 381.956 680.567 383.316 680.82V682.24ZM389.234 675.06H391.254L389.334 679.6H388.054L389.234 675.06Z" fill="black"/>
<path d="M453.528 539.84H450.672L453.36 533.484H455.18L453.528 539.84ZM469.929 553.196C468.118 553.196 466.466 552.776 464.973 551.936C463.48 551.077 462.294 549.892 461.417 548.38C460.558 546.849 460.129 545.132 460.129 543.228C460.129 541.324 460.558 539.616 461.417 538.104C462.294 536.573 463.48 535.388 464.973 534.548C466.466 533.689 468.118 533.26 469.929 533.26C471.758 533.26 473.42 533.689 474.913 534.548C476.406 535.388 477.582 536.564 478.441 538.076C479.3 539.588 479.729 541.305 479.729 543.228C479.729 545.151 479.3 546.868 478.441 548.38C477.582 549.892 476.406 551.077 474.913 551.936C473.42 552.776 471.758 553.196 469.929 553.196ZM469.929 550.984C471.292 550.984 472.514 550.667 473.597 550.032C474.698 549.397 475.557 548.492 476.173 547.316C476.808 546.14 477.125 544.777 477.125 543.228C477.125 541.66 476.808 540.297 476.173 539.14C475.557 537.964 474.708 537.059 473.625 536.424C472.542 535.789 471.31 535.472 469.929 535.472C468.548 535.472 467.316 535.789 466.233 536.424C465.15 537.059 464.292 537.964 463.657 539.14C463.041 540.297 462.733 541.66 462.733 543.228C462.733 544.777 463.041 546.14 463.657 547.316C464.292 548.492 465.15 549.397 466.233 550.032C467.334 550.667 468.566 550.984 469.929 550.984ZM493.369 537.376C495.235 537.376 496.747 537.945 497.905 539.084C499.062 540.204 499.641 541.828 499.641 543.956V553H497.121V544.32C497.121 542.789 496.738 541.623 495.973 540.82C495.207 539.999 494.162 539.588 492.837 539.588C491.493 539.588 490.419 540.008 489.617 540.848C488.833 541.688 488.441 542.911 488.441 544.516V553H485.893V537.656H488.441V539.84C488.945 539.056 489.626 538.449 490.485 538.02C491.362 537.591 492.323 537.376 493.369 537.376ZM505.651 543.228C505.651 541.324 506.08 539.616 506.939 538.104C507.798 536.573 508.964 535.379 510.439 534.52C511.932 533.661 513.584 533.232 515.395 533.232C517.523 533.232 519.38 533.745 520.967 534.772C522.554 535.799 523.711 537.255 524.439 539.14H521.387C520.846 537.964 520.062 537.059 519.035 536.424C518.027 535.789 516.814 535.472 515.395 535.472C514.032 535.472 512.81 535.789 511.727 536.424C510.644 537.059 509.795 537.964 509.179 539.14C508.563 540.297 508.255 541.66 508.255 543.228C508.255 544.777 508.563 546.14 509.179 547.316C509.795 548.473 510.644 549.369 511.727 550.004C512.81 550.639 514.032 550.956 515.395 550.956C516.814 550.956 518.027 550.648 519.035 550.032C520.062 549.397 520.846 548.492 521.387 547.316H524.439C523.711 549.183 522.554 550.629 520.967 551.656C519.38 552.664 517.523 553.168 515.395 553.168C513.584 553.168 511.932 552.748 510.439 551.908C508.964 551.049 507.798 549.864 506.939 548.352C506.08 546.84 505.651 545.132 505.651 543.228ZM533.58 532.28V553H531.032V532.28H533.58ZM542.038 535.164C541.553 535.164 541.142 534.996 540.806 534.66C540.47 534.324 540.302 533.913 540.302 533.428C540.302 532.943 540.47 532.532 540.806 532.196C541.142 531.86 541.553 531.692 542.038 531.692C542.505 531.692 542.897 531.86 543.214 532.196C543.55 532.532 543.718 532.943 543.718 533.428C543.718 533.913 543.55 534.324 543.214 534.66C542.897 534.996 542.505 535.164 542.038 535.164ZM543.27 537.656V553H540.722V537.656H543.27ZM549.461 545.3C549.461 543.713 549.778 542.332 550.413 541.156C551.048 539.961 551.925 539.037 553.045 538.384C554.184 537.731 555.481 537.404 556.937 537.404C558.822 537.404 560.372 537.861 561.585 538.776C562.817 539.691 563.629 540.96 564.021 542.584H561.277C561.016 541.651 560.502 540.913 559.737 540.372C558.99 539.831 558.057 539.56 556.937 539.56C555.481 539.56 554.305 540.064 553.409 541.072C552.513 542.061 552.065 543.471 552.065 545.3C552.065 547.148 552.513 548.576 553.409 549.584C554.305 550.592 555.481 551.096 556.937 551.096C558.057 551.096 558.99 550.835 559.737 550.312C560.484 549.789 560.997 549.043 561.277 548.072H564.021C563.61 549.64 562.789 550.9 561.557 551.852C560.325 552.785 558.785 553.252 556.937 553.252C555.481 553.252 554.184 552.925 553.045 552.272C551.925 551.619 551.048 550.695 550.413 549.5C549.778 548.305 549.461 546.905 549.461 545.3ZM578.789 553L572.769 546.224V553H570.221V532.28H572.769V544.46L578.677 537.656H582.233L575.009 545.3L582.261 553H578.789ZM587.823 533.484H590.651L587.963 539.84H586.171L587.823 533.484ZM605.669 543.228C605.669 541.324 606.098 539.616 606.957 538.104C607.816 536.573 608.982 535.379 610.457 534.52C611.95 533.661 613.602 533.232 615.413 533.232C617.541 533.232 619.398 533.745 620.985 534.772C622.572 535.799 623.729 537.255 624.457 539.14H621.405C620.864 537.964 620.08 537.059 619.053 536.424C618.045 535.789 616.832 535.472 615.413 535.472C614.05 535.472 612.828 535.789 611.745 536.424C610.662 537.059 609.813 537.964 609.197 539.14C608.581 540.297 608.273 541.66 608.273 543.228C608.273 544.777 608.581 546.14 609.197 547.316C609.813 548.473 610.662 549.369 611.745 550.004C612.828 550.639 614.05 550.956 615.413 550.956C616.832 550.956 618.045 550.648 619.053 550.032C620.08 549.397 620.864 548.492 621.405 547.316H624.457C623.729 549.183 622.572 550.629 620.985 551.656C619.398 552.664 617.541 553.168 615.413 553.168C613.602 553.168 611.95 552.748 610.457 551.908C608.982 551.049 607.816 549.864 606.957 548.352C606.098 546.84 605.669 545.132 605.669 543.228ZM630.098 545.272C630.098 543.704 630.415 542.332 631.05 541.156C631.684 539.961 632.552 539.037 633.654 538.384C634.774 537.731 636.015 537.404 637.378 537.404C638.722 537.404 639.888 537.693 640.878 538.272C641.867 538.851 642.604 539.579 643.09 540.456V537.656H645.666V553H643.09V550.144C642.586 551.04 641.83 551.787 640.822 552.384C639.832 552.963 638.675 553.252 637.35 553.252C635.987 553.252 634.755 552.916 633.654 552.244C632.552 551.572 631.684 550.629 631.05 549.416C630.415 548.203 630.098 546.821 630.098 545.272ZM643.09 545.3C643.09 544.143 642.856 543.135 642.39 542.276C641.923 541.417 641.288 540.764 640.486 540.316C639.702 539.849 638.834 539.616 637.882 539.616C636.93 539.616 636.062 539.84 635.278 540.288C634.494 540.736 633.868 541.389 633.402 542.248C632.935 543.107 632.702 544.115 632.702 545.272C632.702 546.448 632.935 547.475 633.402 548.352C633.868 549.211 634.494 549.873 635.278 550.34C636.062 550.788 636.93 551.012 637.882 551.012C638.834 551.012 639.702 550.788 640.486 550.34C641.288 549.873 641.923 549.211 642.39 548.352C642.856 547.475 643.09 546.457 643.09 545.3ZM655.32 540.148C655.768 539.271 656.402 538.589 657.224 538.104C658.064 537.619 659.081 537.376 660.276 537.376V540.008H659.604C656.748 540.008 655.32 541.557 655.32 544.656V553H652.772V537.656H655.32V540.148ZM665.065 545.272C665.065 543.704 665.382 542.332 666.017 541.156C666.652 539.961 667.52 539.037 668.621 538.384C669.741 537.731 670.992 537.404 672.373 537.404C673.568 537.404 674.678 537.684 675.705 538.244C676.732 538.785 677.516 539.504 678.057 540.4V532.28H680.633V553H678.057V550.116C677.553 551.031 676.806 551.787 675.817 552.384C674.828 552.963 673.67 553.252 672.345 553.252C670.982 553.252 669.741 552.916 668.621 552.244C667.52 551.572 666.652 550.629 666.017 549.416C665.382 548.203 665.065 546.821 665.065 545.272ZM678.057 545.3C678.057 544.143 677.824 543.135 677.357 542.276C676.89 541.417 676.256 540.764 675.453 540.316C674.669 539.849 673.801 539.616 672.849 539.616C671.897 539.616 671.029 539.84 670.245 540.288C669.461 540.736 668.836 541.389 668.369 542.248C667.902 543.107 667.669 544.115 667.669 545.272C667.669 546.448 667.902 547.475 668.369 548.352C668.836 549.211 669.461 549.873 670.245 550.34C671.029 550.788 671.897 551.012 672.849 551.012C673.801 551.012 674.669 550.788 675.453 550.34C676.256 549.873 676.89 549.211 677.357 548.352C677.824 547.475 678.057 546.457 678.057 545.3Z" fill="black"/>
<path d="M427 644.5V676.5L454.5 682" stroke="black" stroke-width="8"/>
<path d="M734.5 607C571 571.5 565 587 486.5 635L432.5 675" stroke="black" stroke-width="8"/>
</svg>
